<svg width="347" height="258" viewBox="0 0 347 258" fill="none" xmlns="http://www.w3.org/2000/svg">
<g clip-path="url(#clip0_8_30)">
<path d="M72.7034 0V109.954H61.3497C60.7187 102.729 60.4037 97.5453 60.4037 94.4039V85.921C59.0428 92.6997 55.9769 99.0236 51.494 104.299C47.2361 109.117 41.3752 111.524 33.9104 111.524C27.7726 111.581 21.7687 109.743 16.7219 106.263C11.422 102.59 7.20313 97.5733 4.5002 91.7332C1.42528 85.2014 -0.111682 78.0559 0.00631512 70.8414C-0.100682 63.6209 1.37928 56.4634 4.3432 49.8716C6.95613 43.9795 11.125 38.903 16.4069 35.1858C21.5428 31.6365 27.6606 29.7695 33.9104 29.8444C41.6902 29.8444 47.6561 31.8085 51.809 35.7355C55.9618 39.6616 58.8268 45.1859 60.4037 52.3064V0H72.7034ZM54.4109 91.4973C58.4058 86.1149 60.4037 79.2303 60.4037 70.8414C60.4037 61.9517 58.4058 54.8832 54.4109 49.6367C50.416 44.3903 44.5811 41.7716 36.9073 41.7826C29.2326 41.7826 23.2137 44.4793 18.8508 49.8716C14.4879 55.265 12.307 62.2546 12.307 70.8414C12.215 75.9639 13.293 81.0404 15.4609 85.6861C17.3759 89.8281 20.4048 93.3624 24.2127 95.8961C27.9536 98.3519 32.3475 99.6383 36.8283 99.5873C44.6081 99.5873 50.49 96.8907 54.4739 91.4973H54.4109Z" fill="black"/>
<path d="M161.013 31.4158L117.332 141.37H104.4L118.593 108.855L88.4736 31.4158H101.562L124.743 93.6184L147.924 31.4158H161.013Z" fill="black"/>
<path d="M232.905 37.2276C237.688 42.1592 240.08 48.8609 240.08 57.3328V109.954H227.78V60.4743C227.78 48.3382 222.155 42.2642 210.907 42.2542C205.212 42.2262 199.708 44.2962 195.453 48.0653C190.871 52.0344 187.716 57.3838 186.464 63.3019V109.954H174.164V31.4155H186.464V53.8775C187.896 47.1638 191.364 41.0498 196.399 36.3631C200.98 32.1211 207.018 29.7883 213.272 29.8442C221.535 29.8442 228.079 32.305 232.905 37.2276Z" fill="black"/>
<path d="M327.128 84.8217C325.913 92.2991 322.054 99.0958 316.247 103.985C310.119 109.098 302.316 111.783 294.328 111.525C287.446 111.605 280.678 109.784 274.773 106.263C268.899 102.777 264.099 97.7504 260.896 91.7334C257.464 85.3085 255.728 78.119 255.85 70.8416C255.738 63.5591 257.417 56.3607 260.739 49.8718C263.812 43.8488 268.472 38.7713 274.221 35.186C280.018 31.6088 286.72 29.7557 293.539 29.8446C304.262 29.8446 312.62 33.2479 318.612 40.0546C324.605 46.8613 327.601 56.6005 327.601 69.2713C327.601 71.3763 327.601 72.9465 327.443 73.984H268.15C268.623 80.9506 271.621 87.5094 276.586 92.44C278.907 94.7609 281.675 96.591 284.724 97.8184C287.773 99.0468 291.039 99.6485 294.328 99.5875C299.121 99.7015 303.823 98.2682 307.731 95.5035C311.429 92.8998 314.149 89.1406 315.458 84.8217H327.128ZM277.706 47.3591C273.323 51.2901 270.266 56.4746 268.954 62.2028H315.001C314.465 55.71 312.152 50.6834 308.062 47.1232C303.808 43.5109 298.354 41.6069 292.766 41.7828C287.221 41.6918 281.845 43.6819 277.706 47.3591Z" fill="black"/>
<path d="M347.091 94.7175H331.007V109.954H347.091V94.7175Z" fill="black"/>
<path d="M155.54 197.007C149.64 193.642 144.784 188.724 141.505 182.791C137.877 176.205 136.055 168.783 136.223 161.271C136.071 153.787 137.892 146.394 141.505 139.831C144.783 133.837 149.634 128.842 155.54 125.38C161.264 121.995 167.807 120.23 174.464 120.274C181.068 120.242 187.557 122.007 193.229 125.38C199.084 128.855 203.881 133.85 207.106 139.831C210.665 146.412 212.458 153.797 212.31 161.271C212.473 168.773 210.68 176.187 207.106 182.791C203.882 188.711 199.08 193.63 193.229 197.007C187.524 200.282 181.048 201.99 174.464 201.954C167.828 202 161.298 200.293 155.54 197.007ZM186.763 186.561C190.79 184.156 194.087 180.709 196.304 176.587C198.808 171.874 200.056 166.602 199.931 161.271C200.052 155.917 198.804 150.619 196.304 145.878C194.096 141.708 190.8 138.207 186.763 135.747C183.044 133.451 178.759 132.227 174.385 132.212C169.942 132.195 165.579 133.39 161.769 135.668C157.688 138.1 154.36 141.606 152.149 145.8C149.602 150.554 148.326 155.883 148.444 161.271C148.313 166.612 149.591 171.892 152.149 176.587C154.404 180.707 157.726 184.151 161.769 186.561C165.582 188.831 169.943 190.026 174.385 190.016C178.748 189.996 183.025 188.803 186.763 186.561Z" fill="black"/>
<path d="M248.501 127.264C252.486 122.594 258.11 120.264 265.374 120.274V132.84C258.016 132.84 252.365 135.197 248.422 139.909C244.653 144.292 241.883 149.436 240.301 154.988V191.745H228.001V121.846H240.301V143.207C241.721 137.319 244.533 131.853 248.501 127.264Z" fill="black"/>
<path d="M328.755 226.79C328.728 222.193 327.063 218.65 324.463 216.296C321.572 213.678 317.235 212.368 311.453 212.368H296.157C289.313 212.368 284.219 211.206 280.86 208.913C279.234 207.837 277.914 206.36 277.03 204.626C276.146 202.892 275.727 200.96 275.814 199.017C275.664 196.967 276.095 194.917 277.057 193.098C278.018 191.28 279.473 189.765 281.254 188.729C285.207 186.499 289.735 185.488 294.264 185.822C288.219 183.559 283.018 179.502 279.362 174.199C275.405 168.367 273.391 161.443 273.606 154.408C273.483 148.182 275.006 142.034 278.021 136.579C280.783 131.569 284.875 127.412 289.849 124.562C294.736 121.748 300.289 120.283 305.933 120.321C309.258 120.296 312.563 120.827 315.71 121.893L347.091 121.735V135.354C340.563 135.354 333.415 133.312 325.645 129.228C333.73 134.977 337.778 143.354 337.788 154.36C337.929 160.578 336.435 166.725 333.452 172.188C330.724 177.09 326.684 181.142 321.782 183.89C316.944 186.598 311.482 188.005 305.933 187.974C301.325 188.033 296.743 188.667 292.293 189.859C289.502 190.802 288.114 192.53 288.114 195.043C288.08 195.795 288.227 196.543 288.542 197.226C288.858 197.909 289.333 198.507 289.928 198.97C291.534 200.028 293.448 200.526 295.368 200.384H311.295C320.221 200.384 327.422 202.321 332.9 206.195C338.376 210.071 341.17 216.401 341.16 225.198C341.16 225.198 341.169 228.884 341.178 229.615C341.219 233.125 340.485 236.608 339.112 239.842C337.636 243.443 335.454 246.717 332.695 249.47C329.938 252.23 326.65 254.404 323.028 255.863C319.523 257.283 315.773 258.009 311.989 258C308.205 258.008 304.456 257.282 300.95 255.863C297.331 254.408 294.047 252.233 291.3 249.47L291.11 249.282L261.149 216.767C257.927 213.617 253.588 211.86 249.073 211.878C244.559 211.896 240.233 213.686 237.037 216.861C233.834 220.06 232.035 224.392 232.035 228.909C232.035 233.426 233.834 237.759 237.037 240.957C240.236 244.13 244.562 245.918 249.077 245.933C253.591 245.947 257.929 244.188 261.149 241.035L268.465 233.056L276.728 241.947L269.884 249.376L269.79 249.47C267.033 252.23 263.745 254.404 260.124 255.863C256.618 257.282 252.869 258.008 249.085 258C245.301 258.008 241.552 257.282 238.046 255.863C234.426 254.408 231.142 252.233 228.395 249.47C225.625 246.726 223.443 243.45 221.977 239.842C220.551 236.351 219.823 232.616 219.833 228.846C219.823 225.077 220.551 221.342 221.977 217.851C223.443 214.243 225.625 210.967 228.395 208.222C231.142 205.46 234.426 203.285 238.046 201.829C241.553 200.415 245.302 199.695 249.085 199.709C252.868 199.695 256.617 200.415 260.124 201.829C263.745 203.289 267.033 205.463 269.79 208.222L269.963 208.41L299.926 240.925C303.142 244.077 307.477 245.836 311.989 245.821C316.501 245.807 320.825 244.019 324.021 240.848C325.562 239.391 326.779 237.63 327.594 235.676C328.409 233.723 328.804 231.621 328.752 229.506C328.752 228.842 328.742 227.309 328.755 226.79ZM319.732 170.304C323.569 166.377 325.488 161.062 325.488 154.36C325.587 150.289 324.637 146.26 322.728 142.657C321.056 139.518 318.581 136.873 315.553 134.992C312.661 133.222 309.327 132.298 305.933 132.323C302.502 132.312 299.129 133.206 296.157 134.914C293.023 136.717 290.456 139.356 288.745 142.533C286.784 146.146 285.805 150.207 285.906 154.313C285.906 161.005 287.878 166.319 291.82 170.256C293.644 172.147 295.837 173.645 298.264 174.658C300.691 175.671 303.301 176.178 305.933 176.147C308.509 176.176 311.063 175.671 313.433 174.666C315.803 173.659 317.937 172.174 319.7 170.304H319.732Z" fill="black"/>
</g>
<defs>
<clipPath id="clip0_8_30">
<rect width="347" height="258" fill="white"/>
</clipPath>
</defs>
</svg>
