<svg width="300" height="300" viewBox="0 0 300 300" fill="none" xmlns="http://www.w3.org/2000/svg">
<circle cx="149.5" cy="149.5" r="118" stroke="black" stroke-width="3"/>
<path fill-rule="evenodd" clip-rule="evenodd" d="M74.8659 56.1204C95.3259 39.7404 121.278 29.9404 149.5 29.9404C180.863 29.9404 209.422 42.0434 230.754 61.8264C229.971 63.1054 229.19 64.3864 228.43 65.6794C226.465 68.9934 224.551 72.3804 222.586 75.7104C220.621 79.0404 218.698 82.1304 216.783 85.3674C214.379 89.4674 212.05 93.6014 209.67 97.7174C209.181 98.5464 208.766 99.5234 207.623 99.7804C207.186 99.9114 206.776 100.119 206.412 100.393C203.926 102.05 201.355 103.632 198.894 105.362C197.177 106.555 195.578 107.848 193.92 109.198C191.433 111.218 188.88 113.182 186.508 115.344C184.394 117.282 182.521 119.485 180.49 121.514C178.236 123.865 176.495 126.658 175.376 129.714C174.19 132.704 173.717 135.86 172.996 138.966C172.805 139.795 172.996 140.366 173.826 140.623C174.655 140.88 175.318 141.129 176.072 141.377V141.642L176.693 141.153C177.522 141.336 177.522 142.694 178.807 142.296C178.575 141.849 178.376 141.467 178.144 141.021L178.974 140.606C178.955 140.836 178.973 141.069 179.023 141.294C179.167 141.543 179.332 141.782 179.512 142.006C179.769 141.783 180.266 141.451 180.225 141.344C179.894 140.515 180.49 139.347 179.155 138.908L180.126 138.262C180.274 138.709 180.469 139.139 180.706 139.546C180.788 139.662 181.394 139.588 181.41 139.546C181.577 138.892 181.668 138.221 181.784 137.558C181.626 137.434 181.692 137.343 181.784 137.327C183.127 137.069 183.333 136.689 182.928 135.38C182.875 134.951 182.875 134.517 182.928 134.088C183.806 135.115 184.386 134.593 184.768 134.013C185.282 133.227 186.236 132.696 186.177 131.529C186.177 131.263 186.691 130.915 187.006 130.7C187.183 130.63 187.344 130.525 187.478 130.39C187.613 130.255 187.717 130.093 187.785 129.916C187.854 129.738 187.885 129.549 187.877 129.358C187.868 129.168 187.82 128.982 187.736 128.811C187.695 128.373 187.729 127.931 187.835 127.503C189.128 128.952 189.12 127.354 189.493 127.006C190.322 126.302 189.095 126.053 188.996 125.308C189.32 125.147 189.662 125.025 190.015 124.944C191.026 124.803 191.515 124.115 191.109 123.196C190.861 122.633 191.109 122.21 191.515 122.218C192.651 122.218 192.602 121.456 192.784 120.719C192.917 120.148 192.842 119.502 193.72 119.195C194.412 118.846 194.987 118.306 195.379 117.638C196.208 116.445 196.962 115.153 197.741 113.919C197.848 114.25 197.831 114.61 197.692 114.93C196.921 116.586 196.166 118.243 195.313 119.849C193.381 123.486 191.457 127.113 189.419 130.684C187.81 133.492 186.019 136.2 184.329 138.966C183.276 140.689 182.281 142.445 181.195 144.143C180.242 145.626 179.173 147.026 178.186 148.492C177.506 149.518 176.942 150.629 176.205 151.614C174.605 153.727 172.889 155.756 171.231 157.877C169.913 159.615 168.744 161.438 167.393 163.186C165.868 164.989 164.553 166.959 163.471 169.058C163.223 169.802 163.042 170.567 162.933 171.344L163.298 171.609C163.704 171.378 164.3 171.245 164.475 170.905C164.981 169.61 165.775 168.446 166.795 167.501C167.421 166.909 168.157 166.445 168.959 166.135C169.862 165.997 170.779 165.977 171.687 166.077C172.052 166.664 172.242 167.336 172.64 167.517C173.038 167.7 173.759 167.517 174.422 167.468C174.14 168.089 173.519 168.851 174.555 168.967C175.357 168.929 176.14 168.708 176.843 168.321C176.961 168.241 177.058 168.132 177.122 168.005C177.185 167.877 177.215 167.735 177.208 167.592C177.083 166.855 177.432 166.763 178.036 166.632C178.512 166.462 178.924 166.15 179.214 165.737C179.314 165.621 179.073 165.198 178.965 164.908C178.857 164.619 178.791 164.511 178.7 164.321C178.932 164.246 179.23 164.055 179.396 164.13C179.52 164.214 179.662 164.268 179.813 164.286C179.962 164.305 180.113 164.287 180.254 164.236C180.395 164.183 180.522 164.099 180.623 163.988C180.725 163.878 180.799 163.745 180.838 163.6C180.869 163.548 180.911 163.503 180.961 163.471C181.012 163.437 181.068 163.416 181.128 163.409C182.165 163.476 181.958 162.78 181.875 162.241C182.928 161.255 184.279 160.742 185.05 159.416C185.497 158.647 186.442 158.175 187.056 157.471C187.383 156.955 187.639 156.398 187.819 155.813C188.195 155.754 188.56 155.631 188.896 155.449C189.224 155.146 189.504 154.794 189.725 154.406L188.573 153.867C188.573 153.867 188.573 153.777 188.515 153.66C189.195 153.648 189.873 153.568 190.537 153.421C191.284 153.196 191.3 152.526 190.537 151.639C192.113 151.639 193.223 151.126 193.638 149.602C193.688 149.436 194.036 149.369 194.185 149.212C194.583 148.806 195.147 148.434 195.28 147.945C195.413 147.383 195.765 146.897 196.257 146.595C196.754 146.247 197.435 145.634 197.402 145.179C197.402 144.491 197.708 144.35 198.073 144.052C198.761 143.523 199.45 142.992 200.153 142.47C200.469 142.23 200.809 142.006 201.206 141.733C201.151 141.507 201.152 141.27 201.209 141.044C201.266 140.818 201.379 140.61 201.536 140.438C201.694 140.265 201.891 140.135 202.111 140.057C202.331 139.98 202.568 139.958 202.798 139.994C201.413 145.328 198.985 150.214 196.913 155.234C194.84 160.253 191.549 164.727 188.092 169.099C189.021 169.332 189.667 169.539 190.339 169.646C191.219 169.808 192.113 169.891 193.008 169.895C193.638 169.895 194.368 169.282 194.583 170.441C194.583 170.525 194.781 170.632 194.898 170.648C196.556 170.947 198.214 171.7 199.797 170.169C199.988 170.831 200.137 171.36 200.294 171.891H200.759C200.892 171.278 201.016 170.665 201.099 170.3C201.559 170.257 202.009 170.131 202.425 169.928C202.665 169.746 202.682 169.265 202.79 168.918L200.908 168.511L199.98 166.855C199.209 167.071 198.387 167.865 198.653 166.308C198.761 165.712 197.393 164.908 197.111 165.306C196.498 166.176 195.86 165.778 195.188 165.596C196.39 164.942 196.406 164.767 195.52 163.724C195.387 163.575 195.52 163.21 195.52 162.747C195.852 163.02 195.967 163.07 196.001 163.152C196.283 163.981 196.382 164.991 197.708 164.652C197.799 164.652 197.948 164.826 198.065 164.934C199.463 166.312 201.167 167.343 203.038 167.94C203.403 168.039 204.058 167.982 204.224 167.741C204.719 166.944 205.159 166.113 205.542 165.256L205.309 164.494C206.048 164.18 206.835 164.089 207.067 163.666C207.3 163.244 207.067 162.474 207.067 161.959C207.556 161.687 208.41 161.48 208.617 160.999C208.825 160.518 208.377 159.764 208.244 159.267C208.841 159.094 209.696 159.094 210.018 158.688C210.566 157.976 209.629 157.603 209.189 157.164C209.896 156.983 210.585 156.737 211.245 156.427C211.565 156.283 211.818 156.023 211.952 155.701C212.088 155.378 212.097 155.016 211.975 154.688L213.401 152.981C213.318 152.757 213.202 152.467 213.077 152.153C215.026 151.216 215.199 149.005 216.634 147.523C216.635 147.923 216.596 148.322 216.518 148.715C215.896 150.671 215.349 152.65 214.578 154.513C213.784 156.444 212.874 158.326 211.85 160.146C210.814 162.017 209.654 163.824 208.46 165.596C206.994 167.885 205.137 169.898 202.972 171.543C202.558 171.841 202.144 172.471 202.782 172.76C203.901 173.257 205.011 174.028 206.38 173.663C206.509 173.659 206.638 173.685 206.757 173.74C206.875 173.795 206.978 173.876 207.059 173.979C207.292 174.508 207.473 174.981 208.178 174.989C208.734 174.989 209.281 175.146 209.837 175.13C210.002 175.13 210.268 174.814 210.292 174.625C210.317 174.434 210.201 173.895 210.052 173.854C209.6 173.798 209.144 173.798 208.692 173.854C208.625 173.415 208.535 172.843 208.452 172.289L207.374 171.808C207.763 171.121 208.053 171.179 208.51 171.692C209.704 173.059 210.997 174.309 213.052 174.02C214.711 173.788 215.316 173.772 215.539 172.064C215.934 171.661 216.393 171.325 216.898 171.071C217.86 170.789 217.81 170.334 217.488 169.853L215.366 170.044L215.316 169.662C216.01 169.641 216.7 169.541 217.371 169.364C218.202 169.076 218.968 168.629 219.626 168.048C219.933 167.766 219.801 167.004 219.875 166.465C219.875 166.375 219.958 166.3 219.999 166.217C220.488 166.173 220.957 166.002 221.359 165.721C221.052 164.834 221.857 164.544 222.187 163.989C222.321 163.648 222.321 163.27 222.187 162.929C221.998 162.391 222.08 162.333 222.66 162.158C223.473 161.887 224.208 161.427 224.807 160.816C225.114 160.51 225.022 159.79 225.123 159.16C226.457 158.812 226.955 158.265 226.673 157.28C228.04 156.187 228.04 156.187 227.021 154.96C226.977 154.916 226.944 154.862 226.921 154.803C226.765 154.183 226.487 153.601 226.105 153.09C225.722 152.578 225.242 152.147 224.692 151.822C224.559 151.755 224.525 151.498 224.442 151.325C225.272 151.432 225.885 152.269 226.78 151.731C226.888 151.987 227.145 152.36 227.062 152.459C226.606 153.039 226.83 153.288 227.377 153.61C227.577 153.719 227.684 154.025 227.792 154.265C227.899 154.505 227.867 154.845 228.024 154.978C228.853 155.656 228.654 156.468 228.413 157.313C227.925 158.97 227.402 160.684 226.996 162.391C226.315 165.259 225.386 168.064 224.219 170.773C223.68 172.04 222.809 173.175 222.934 174.674C222.934 174.881 222.495 175.096 222.288 175.337C222.048 175.611 221.831 175.905 221.641 176.214C221.442 176.562 221.416 177.084 221.135 177.283C219.743 178.285 219.584 178.791 220.306 180.505C220.485 181.009 220.853 181.424 221.333 181.662C221.812 181.9 222.366 181.942 222.876 181.781C223.572 182.948 223.904 183.04 224.534 182.394L224.053 181.342L224.476 181.168C224.557 181.477 224.667 181.776 224.807 182.062C225.022 182.435 225.413 183.098 225.562 183.056C226.125 182.899 226.606 182.518 226.391 181.747C226.216 181.185 226.125 180.596 225.993 180.025L226.258 179.918C226.365 180.099 226.474 180.282 226.59 180.463C226.706 180.646 226.905 181.185 227.17 181.292C227.329 181.307 227.49 181.28 227.635 181.213C227.781 181.146 227.906 181.041 227.999 180.911C228.118 180.539 228.118 180.14 227.999 179.768C227.775 178.989 227.468 178.244 227.104 177.234C227.933 177.631 228.165 177.979 228.057 178.616C228.069 178.762 228.116 178.903 228.193 179.028C228.271 179.152 228.378 179.255 228.505 179.329C228.737 179.445 229.226 179.453 229.333 179.329C229.47 179.04 229.514 178.716 229.458 178.401C229.458 178.111 229.268 177.838 229.25 177.573C229.25 176.612 228.761 176.231 227.808 176.355C227.369 176.413 226.814 176.463 226.905 175.842C228.563 175.635 230.221 175.486 231.878 175.204C232.141 175.139 232.387 175.018 232.598 174.85C232.809 174.68 232.981 174.467 233.102 174.226C233.222 173.984 233.288 173.719 233.297 173.449C233.305 173.178 233.253 172.909 233.146 172.661C233.478 172.2 233.78 171.72 234.05 171.22C234.217 170.802 234.344 170.369 234.432 169.928C234.639 169.249 234.871 168.57 235.045 167.882C235.31 166.888 235.518 165.878 235.775 164.876C236.031 163.874 236.339 162.738 236.603 161.67C236.603 161.562 236.512 161.43 236.471 161.305C236.086 160.067 235.356 158.962 234.367 158.122C233.378 157.281 232.17 156.74 230.883 156.559C231.24 156.328 231.555 155.972 231.713 156.03C232.542 156.31 233.42 156.7 234.316 157.064C234.39 156.684 234.481 156.161 234.573 155.632H234.888V156.46C234.85 156.739 234.875 157.022 234.962 157.288C235.22 157.785 235.568 158.241 235.973 158.862C236.339 158.903 236.977 158.994 237.217 158.241C237.507 157.322 236.521 157.545 236.148 157.197C237.292 156.443 237.292 156.443 236.48 155.706C236.595 155.01 237.052 154.704 237.673 154.878C237.922 154.991 238.205 155.001 238.461 154.907C238.717 154.811 238.925 154.62 239.041 154.373C239.389 153.851 239.563 153.437 239.041 152.882C238.784 152.592 238.544 152.103 239.232 151.888C240.525 151.49 240.533 151.474 240.06 150.182C241.113 149.353 241.221 148.914 240.781 147.556C240.717 147.435 240.681 147.3 240.678 147.163C240.676 147.025 240.705 146.889 240.765 146.766C240.825 146.643 240.913 146.534 241.023 146.452C241.132 146.369 241.26 146.313 241.395 146.289C241.548 146.205 241.679 146.087 241.778 145.943C241.876 145.799 241.938 145.633 241.959 145.46C241.959 145.261 241.578 144.988 241.321 144.839C241.063 144.69 240.906 144.839 240.491 144.839C240.773 144.674 240.931 144.507 241.022 144.541C242.009 144.881 242.357 144.358 242.398 143.513C242.44 142.668 242.398 141.716 242.398 140.822C242.398 140.557 242.274 140.3 242.282 140.043C242.312 139.732 242.37 139.425 242.456 139.124L243.094 139.538C243.674 138.767 244.379 137.923 243.708 136.755C243.642 136.631 243.775 136.374 243.857 136.2C243.99 135.98 244.054 135.725 244.041 135.468C244.026 135.211 243.937 134.964 243.783 134.758C243.467 134.287 243.509 133.707 244.313 133.566C244.537 133.525 244.91 133.351 244.926 133.21C245.179 131.931 245.268 130.626 245.192 129.326C245.009 128.058 244.802 128.066 245.947 127.668C246.088 126.128 246.269 124.596 246.352 123.063C246.452 121.126 246.485 119.187 245.051 117.605C244.669 117.175 244.33 116.71 243.982 116.255C243.353 115.239 242.616 114.295 241.785 113.439C240.127 112.063 238.286 110.896 236.504 109.661C236.081 109.371 235.576 109.19 235.145 108.916C234.133 108.253 233.138 107.566 232.119 106.879C232.359 106.249 232.566 106.207 233.039 106.688C233.466 107.165 233.944 107.592 234.465 107.963C235.617 108.684 236.04 108.468 236.347 107.136L237.541 107.201C237.375 107.482 237.165 107.734 236.919 107.947C236.752 108.154 236.521 108.585 236.595 108.667C236.831 108.986 237.171 109.209 237.557 109.297C237.839 109.297 238.187 109.007 238.461 108.792C239.43 108.038 240.384 107.267 241.337 106.498C241.56 106.307 241.868 106.116 241.942 105.859C242.048 105.386 242.112 104.904 242.133 104.418C241.635 104.435 241.139 104.491 240.65 104.584C240.442 104.634 240.284 104.949 240.152 105.164C239.927 105.629 239.607 106.041 239.211 106.373C238.816 106.703 238.353 106.947 237.855 107.086C237.954 106.116 238.079 105.967 239.14 105.669C239.14 105.221 239.14 104.766 239.198 104.468C239.807 104.168 240.366 103.777 240.857 103.308C241.155 102.738 241.357 102.123 241.453 101.487C241.37 101.487 241.495 101.445 241.56 101.487L243.08 101.845C242.993 101.857 242.908 101.877 242.824 101.906C242.65 101.964 242.489 102.058 242.35 102.178C242.212 102.3 242.098 102.448 242.017 102.614C241.936 102.779 241.887 102.958 241.876 103.143L241.868 103.159C241.851 103.314 241.866 103.472 241.913 103.621C241.96 103.769 242.038 103.906 242.143 104.022C242.247 104.139 242.374 104.232 242.517 104.296C242.659 104.36 242.814 104.394 242.97 104.394C243.517 104.477 244.628 103.358 244.437 102.837C244.342 102.602 244.197 102.392 244.012 102.219C243.921 102.134 243.821 102.058 243.714 101.994L243.08 101.845C243.175 101.831 243.272 101.828 243.368 101.835C243.489 101.875 243.605 101.929 243.714 101.994L244.827 102.256C244.937 102.477 244.969 102.728 244.918 102.969C244.62 103.69 244.81 104.841 243.467 104.692C243.41 104.692 243.352 104.849 243.269 104.899C242.44 105.446 242.647 106.299 242.672 106.953C242.101 107.016 241.543 107.161 241.014 107.384C240.352 107.846 239.744 108.379 239.198 108.974C238.236 109.935 238.369 110.365 239.629 110.979C239.853 111.086 240.102 111.144 240.459 111.277C240.459 110.109 241.337 109.868 242.116 109.331C243.203 108.56 245.017 108.386 244.926 106.506C245.567 106.463 246.173 106.202 246.643 105.766C247.114 105.331 247.421 104.747 247.513 104.112H248.823C247.322 105.412 247.936 106.597 248.981 107.707L248.657 107.764L247.24 106.108C246.634 106.63 246.038 107.136 245.458 107.657C244.296 108.693 243.128 109.711 242.001 110.771C241.795 110.997 241.687 111.295 241.701 111.6C241.701 111.799 242.059 112.039 242.299 112.113C243.376 112.453 244.139 112.014 244.977 111.285C245.814 110.556 245.988 110.258 244.977 109.331C245.565 109.488 246.175 109.553 246.783 109.52C247.303 109.28 247.78 108.955 248.192 108.56L248.873 109.993L248.633 110.158L247.58 109.637C247.215 110.076 246.75 110.548 246.394 111.078C246.264 111.39 246.181 111.719 246.145 112.055C246.543 112.146 247.04 112.445 247.322 112.304C247.893 111.943 248.422 111.517 248.897 111.037C248.965 111.077 249.023 111.134 249.064 111.202C249.768 112.461 250.157 112.519 251.227 111.566C251.484 111.422 251.765 111.325 252.056 111.277C252.164 111.608 252.454 112.022 252.338 112.23C252.221 112.437 251.575 112.916 251.45 112.834C250.622 112.262 250.141 112.9 249.743 113.405C249.61 113.563 249.514 113.748 249.462 113.947C249.411 114.147 249.405 114.355 249.444 114.557C249.556 114.751 249.71 114.92 249.895 115.047C250.08 115.174 250.292 115.259 250.514 115.294C250.829 115.294 251.21 114.896 251.517 114.614C251.662 114.414 251.779 114.193 251.865 113.96L252.031 114.209C252.545 114.081 253.036 113.877 253.49 113.604C253.824 113.262 254.104 112.872 254.319 112.445C254.683 112.458 255.048 112.424 255.404 112.345C256.673 111.882 257.303 110.423 258.72 110.158C258.804 110.158 258.82 109.91 258.911 109.828C259.5 109.281 260.055 108.369 260.702 108.287C261.077 108.242 261.38 108.132 261.641 107.982C266.438 120.915 269.059 134.903 269.059 149.5C269.059 215.486 215.487 269.059 149.5 269.059C83.5129 269.059 29.9409 215.486 29.9409 149.5C29.9409 134.27 32.7939 119.702 37.9939 106.307C38.5049 106.835 39.0229 107.358 39.5479 107.872C42.2259 110.49 44.9939 113.016 47.7799 115.517C49.4379 117.05 51.2949 118.458 53.0439 119.941C54.3529 121.042 55.6219 122.194 56.9229 123.295C57.9509 124.124 59.0449 124.952 60.0319 125.846C60.3359 126.049 60.5639 126.347 60.6809 126.693C60.7979 127.039 60.7969 127.415 60.6789 127.759C60.5789 128.181 60.5789 128.622 60.6789 129.044C60.8439 130.203 61.0929 131.346 61.2509 132.506C61.6649 135.554 61.9629 138.61 62.4609 141.617C63.0159 145.022 63.6459 148.417 64.3919 151.78C64.8949 153.86 65.5059 155.911 66.2239 157.926C67.0529 160.452 67.9979 162.954 68.9099 165.455C70.1859 169.136 71.7959 172.693 73.7179 176.082C74.6759 177.779 75.7679 179.397 76.9849 180.92C78.5929 182.825 80.3829 184.581 82.1659 186.32C84.1049 188.217 86.1199 188.399 88.5989 187.148C89.3849 186.723 90.2199 186.395 91.0859 186.171C92.1379 185.931 92.3619 185.748 91.6659 184.887C91.0249 183.944 90.4859 182.936 90.0569 181.88C89.5349 180.861 89.2289 179.644 87.6699 179.586C88.7809 177.449 87.1559 177.623 86.0119 177.573L87.4049 176.745L86.4179 175.569C86.4769 174.293 86.4179 174.219 85.4729 173.249C85.2569 173.026 85.3409 172.521 85.2489 172.148C85.1579 171.775 85.1079 171.261 84.8929 171.162C84.2219 170.863 84.2299 170.541 84.3629 169.879C84.5279 169.05 84.8339 167.964 83.3839 167.725C83.2519 167.725 83.1929 167.021 83.1689 166.648C83.1439 166.276 83.3839 165.721 83.2189 165.405C82.8739 164.882 82.4639 164.403 81.9989 163.981C83.0439 162.407 81.5189 160.957 81.4689 159.384C81.4689 159.309 81.3289 159.243 81.2699 159.169C81.0449 158.78 80.9199 158.342 80.9089 157.893C80.8969 157.445 80.9979 157 81.2039 156.601C82.3809 158.92 83.4829 161.273 84.7519 163.534C86.6919 166.996 88.6149 170.491 90.7949 173.804C92.7269 176.745 94.9399 179.478 97.1619 182.253C97.6259 182.841 98.0819 183.744 99.1089 183.521C99.7429 183.368 100.367 183.175 100.975 182.94C102.5 182.386 104.034 181.855 105.526 181.226C106.16 180.864 106.756 180.436 107.3 179.95L108.403 179.735C108.353 179.304 108.251 178.881 108.096 178.476C107.756 177.838 107.267 177.283 106.919 176.645C106.438 175.768 105.36 175.337 105.211 174.202C105.103 173.866 104.94 173.549 104.73 173.265C104.581 172.984 104.44 172.702 104.275 172.438C104.108 172.173 103.777 171.924 103.752 171.609C103.723 171.263 103.581 170.935 103.347 170.678C103.113 170.42 102.801 170.247 102.459 170.185C101.73 170.002 101.372 170.541 101.116 171.187C101.042 171.378 100.602 171.485 100.287 171.51C99.9719 171.535 99.9219 171.311 99.7399 171.203C99.8779 170.975 100.037 170.759 100.212 170.557C100.444 170.334 100.752 170.193 101.042 169.978C102.268 168.95 102.26 168.636 100.967 167.634C101.58 166.623 100.734 166.068 100.237 165.381L99.1759 165.745C99.1759 165.232 99.1759 164.858 99.2339 164.486C99.2919 164.113 99.4749 163.566 99.3169 163.244C98.5879 161.753 97.7579 160.37 96.9299 158.961L97.4019 158.406C96.5739 158.539 96.3409 158.307 96.3579 157.62C96.4529 156.597 96.1569 155.575 95.5289 154.762C94.8989 153.975 94.8649 152.741 94.3679 151.813C93.9369 151.027 95.0479 149.403 92.8679 149.536L93.6969 148.914C93.7469 148.011 92.5859 147.134 93.7879 146.272C93.9139 146.415 94.0249 146.571 94.1199 146.736C94.8989 148.392 95.5449 150.107 96.4489 151.705C97.6759 153.851 99.0929 155.889 100.444 157.967C101.646 159.823 102.774 161.744 104.084 163.526C105.916 166.01 107.847 168.429 109.788 170.839C111.188 172.579 112.73 174.194 114.073 175.975C114.819 176.969 115.498 176.802 116.502 176.504C118.616 175.826 120.191 174.202 122.247 173.432C122.835 173.216 123.209 172.479 123.755 172.074C124.518 171.51 124.344 171.004 123.755 170.466C123.432 170.151 122.752 169.803 122.794 169.572C123.05 168.114 121.492 167.741 121.136 166.574C120.713 165.215 119.18 164.329 118.806 162.804C118.806 162.689 118.632 162.606 118.566 162.498C118.375 162.184 118.218 161.844 118.011 161.546C117.816 161.305 117.609 161.075 117.389 160.858C117.189 161.074 116.966 161.264 116.784 161.488C116.601 161.711 116.418 162.25 116.237 162.258C115.407 162.258 115.018 162.896 114.471 163.293C113.924 163.691 113.285 163.856 113.758 164.717C113.816 164.826 113.501 165.14 113.368 165.355L113.31 165.033C112.893 164.895 112.456 164.822 112.017 164.817C111.412 164.908 111.32 165.364 111.528 165.928C111.578 166.069 111.338 166.316 111.262 166.457L110.475 165.629C110.732 165.385 110.97 165.122 111.188 164.842C111.528 164.353 111.785 163.882 112.556 164.014C112.804 164.063 113.178 163.583 113.451 163.31C113.724 163.037 113.982 162.532 114.355 162.349C115.385 161.633 116.13 160.577 116.46 159.367C116.577 158.282 115.631 158.307 115.216 157.843C115.343 157.298 115.272 156.726 115.018 156.228C114.558 155.841 114.034 155.538 113.468 155.334C113.948 153.677 113.833 153.47 112.083 152.31C112.323 151.325 112.323 151.333 111.437 150.554C111.273 150.398 111.148 150.205 111.072 149.991C110.674 149.005 110.799 147.713 109.414 147.332C109.356 147.332 109.331 147.166 109.29 147.076C108.809 146.205 108.892 145.179 107.98 144.358C107.068 143.539 107.225 143.232 106.322 143.911C106.081 143.191 106.081 143.191 107.466 142.867C107.01 141.692 106.081 140.664 106.322 139.206C106.749 139.481 107.113 139.842 107.392 140.266C108.485 141.865 109.538 143.497 110.649 145.08C111.657 146.726 112.796 148.288 114.056 149.751C115.383 151.117 116.418 152.774 117.662 154.224C119.768 156.708 121.898 159.127 124.103 161.496C125.845 163.368 127.685 165.132 129.525 166.904C129.823 167.195 130.429 167.534 130.685 167.41C131.854 166.957 132.933 166.304 133.878 165.48C134.424 164.917 135.04 164.425 135.709 164.014C136.463 163.542 137.069 162.465 136.654 161.703C136.067 160.681 135.424 159.691 134.731 158.738C134.055 157.911 133.424 157.048 132.841 156.153C132.517 155.574 132.468 154.845 131.746 154.497C131.672 154.497 131.613 154.256 131.639 154.157C131.871 153.387 131.241 153.097 130.81 153.039C130.503 152.989 130.113 153.511 129.782 153.801C129.591 153.975 129.376 154.406 129.301 154.381C128.356 154.033 128.215 154.729 127.9 155.316C127.751 155.607 127.286 155.988 127.071 155.93C126.242 155.698 126.018 156.236 125.77 156.758C125.579 157.173 125.43 157.587 125.256 158.042L124.186 157.09C124.302 157.032 124.584 156.982 124.634 156.857C125.09 155.574 126.533 155.532 127.312 154.679C127.942 154.051 128.529 153.381 129.069 152.675C129.501 152.053 130.105 151.159 129.326 150.571C128.998 150.382 128.735 150.1 128.567 149.761C128.401 149.421 128.339 149.041 128.389 148.665C127.892 148.194 127.295 147.895 127.254 147.531C127.064 146.569 126.563 145.695 125.828 145.046C125.156 144.292 124.874 143.175 124.079 142.338C123.565 141.791 124.004 140.507 122.76 140.3C122.686 140.3 122.678 140.002 122.603 139.861C122.271 139.224 121.915 138.602 121.55 137.939L121.119 139.14L120.763 139.016C120.87 138.709 120.962 138.403 121.077 138.105C121.31 137.534 120.746 135.504 120.249 135.372C118.989 135.049 118.881 133.914 118.757 133.019C118.616 131.984 118.176 131.744 117.29 131.76C116.981 131.713 116.683 131.621 116.402 131.487L117.479 130.551C117.173 130.236 116.875 129.913 116.559 129.607C116.436 129.475 116.146 129.35 116.154 129.242C116.253 128.033 115.432 127.95 114.388 127.95C114.596 127.61 114.811 127.42 114.835 127.205C114.894 126.765 115.018 126.202 114.835 125.896C114.355 125.263 113.798 124.693 113.178 124.198C112.922 124.03 112.643 123.902 112.349 123.817L111.677 123.51L113.335 123.188C111.851 121.229 110.631 119.085 109.704 116.809C110.533 117.422 110.682 118.69 111.918 118.881C112.001 118.881 112.041 119.17 112.117 119.319C112.269 119.766 112.473 120.194 112.722 120.595C113.41 121.531 114.181 122.409 114.877 123.337C115.357 123.843 115.733 124.439 115.979 125.093C116.072 125.503 116.257 125.887 116.522 126.215C116.787 126.542 117.122 126.804 117.505 126.981C117.653 127.071 117.78 127.191 117.877 127.334C117.973 127.477 118.039 127.639 118.069 127.809C118.009 128.185 118.067 128.571 118.235 128.914C118.403 129.256 118.671 129.539 119.005 129.722L119.776 129.425C119.925 129.905 120.29 130.509 120.141 130.692C119.627 131.33 120.016 131.843 120.324 132.199C121.152 133.177 122.064 133.931 122.238 135.446C122.354 136.457 124.037 136.87 124.493 138.039C124.493 138.089 124.601 138.122 124.659 138.13L127.378 138.502V139.604C126.783 139.183 126.162 138.799 125.521 138.453C125.264 138.337 124.883 138.511 124.552 138.552C124.601 138.784 124.552 139.115 124.709 139.224C125.537 139.869 126.483 140.457 127.378 141.07C126.64 142.42 127.087 143.39 128.646 143.961C128.785 144.05 128.899 144.173 128.977 144.317C129.056 144.462 129.096 144.625 129.094 144.789C128.779 145.825 128.862 146.048 129.857 146.446C130.347 146.691 130.82 146.967 131.274 147.275L130.445 147.904C130.57 149.386 132.666 149.436 132.559 151.027C132.559 151.076 132.791 151.126 132.899 151.2C133.13 151.412 133.387 151.596 133.661 151.747C134.034 151.904 134.434 151.986 134.839 151.987C135.013 151.987 135.179 151.656 135.344 151.482C135.062 151.25 134.764 150.82 134.516 150.836C133.421 150.836 133.737 150.057 133.578 149.502C133.746 149.585 133.893 149.704 134.009 149.85C134.839 150.679 136.638 150.554 136.803 149.568C137.016 148.271 137.121 146.957 137.118 145.643C137.118 144.748 136.903 143.861 135.461 143.895C136.894 143.149 136.894 143.149 136.24 141.849L136.149 141.675C136.048 141.463 135.904 141.276 135.727 141.124C135.548 140.971 135.34 140.859 135.115 140.793C134.891 140.727 134.655 140.71 134.422 140.742C134.19 140.774 133.968 140.855 133.769 140.98C132.476 141.567 132.658 142.835 132.327 143.837C132.211 144.177 132.684 144.706 132.576 145.046C132.44 145.47 132.418 145.923 132.51 146.359C132.603 146.795 132.808 147.199 133.107 147.531C133.512 148.119 133.107 148.633 132.07 148.832V145.154C132.142 144.669 132.093 144.174 131.929 143.712C131.44 143.008 131.83 142.437 132.036 141.874C132.319 141.294 132.652 140.739 133.032 140.217C133.753 140.623 134.349 140.391 134.416 139.53C134.471 138.682 134.402 137.831 134.208 137.003C134.027 136.663 133.546 136.382 133.247 136.076L132.956 136.184C133.007 135.89 133.007 135.59 132.956 135.297C132.75 134.776 132.368 133.839 132.186 133.864C130.993 134.071 131.166 133.5 131.357 132.73C131.37 132.369 131.258 132.016 131.042 131.728C130.304 130.493 129.608 129.242 128.754 128.083C127.651 126.584 126.408 125.184 125.223 123.743C124.602 122.896 123.924 122.093 123.191 121.341C121.401 119.684 119.544 118.028 117.67 116.453C116.013 115.062 114.355 113.679 112.631 112.395C111.62 111.641 110.45 111.095 109.373 110.423C108.544 109.894 107.764 109.222 106.886 108.767C104.515 107.516 102.094 106.34 99.6989 105.106C99.4839 104.962 99.3159 104.757 99.2179 104.517C97.9569 102.033 96.7309 99.4904 95.4709 96.9974C94.1279 94.3474 92.7509 91.7204 91.3669 89.0954C89.9829 86.4694 88.5989 84.0174 87.2719 81.4504C86.7909 80.5224 86.6499 79.4204 85.7719 78.7084C85.7039 78.6374 85.6649 78.5424 85.6639 78.4434C85.5059 76.8614 84.3629 75.7104 83.8149 74.3024C83.5089 73.4744 82.7459 72.9024 82.8709 71.9084C82.8709 71.7344 82.6459 71.5274 82.5389 71.3374C82.1319 70.6244 81.7089 69.9284 81.3369 69.1914C81.1709 68.8524 81.3369 68.2884 81.0709 68.0734C80.1589 67.2454 79.8939 66.1274 79.4129 65.0754C78.1199 62.3084 76.6529 59.6164 75.2689 56.8914L74.8659 56.1204ZM237.334 192.472C237.8 192.797 238.371 193.133 238.776 192.632C239.133 192.049 239.411 191.422 239.605 190.768L240.434 191.314C240.019 192.499 237.797 192.83 238.866 194.752C238.113 194.189 237.781 194.503 237.383 195.042C236.985 195.58 236.893 196.06 237.383 196.499C237.872 196.938 238.262 196.499 238.635 196.185C239.256 195.638 239.895 195.125 240.525 194.594C240.47 194.809 240.381 195.013 240.259 195.199C239.679 195.853 239.041 196.45 238.502 197.137C238.328 197.36 238.411 197.775 238.369 198.106C238.672 198.121 238.975 198.102 239.273 198.048C239.472 197.99 239.621 197.758 239.812 197.626C240.276 197.286 240.757 196.955 241.23 196.624C241.03 197.559 240.591 198.355 241.951 198.587C242.067 198.587 242.108 199.034 242.2 199.257C242.291 199.481 242.464 200.177 242.623 200.185C243.05 200.151 243.464 200.027 243.841 199.821C244.129 199.661 244.406 199.481 244.669 199.283C243.783 201.196 241.669 201.569 241.006 203.366C240.875 203.289 240.754 203.194 240.65 203.084C239.389 201.428 238.212 199.68 236.869 198.115C235.211 196.11 233.42 194.147 231.555 192.317C230.196 191.009 228.744 189.798 227.211 188.697C224.948 187.04 222.594 185.434 220.298 183.777C217.176 181.664 213.87 179.839 210.417 178.327C208.079 177.217 205.625 176.355 203.187 175.47C200.751 174.583 198.081 173.605 195.47 172.869C192.858 172.131 190.289 171.601 187.686 171.054C186.028 170.714 184.428 170.458 182.779 170.226C181.495 170.091 180.206 170.022 178.915 170.02C178.294 170.014 177.676 170.107 177.083 170.292C176.86 170.358 176.751 170.789 176.594 171.046C176.816 171.205 177.055 171.339 177.307 171.444C177.73 171.585 178.136 171.659 178.6 171.758L178.534 172.082C177.564 171.982 176.602 171.867 175.624 171.808C175.326 171.808 174.796 171.866 174.796 171.999C174.712 172.313 174.796 172.877 174.953 172.993C175.407 173.211 175.9 173.337 176.403 173.365C177.232 173.473 178.12 173.514 178.974 173.589V173.961C178.764 174.068 178.536 174.136 178.302 174.16C177.2 174.044 176.105 173.879 174.986 173.754C174.367 173.652 173.74 173.602 173.113 173.605C172.805 173.605 172.283 173.887 172.283 174.12C172.239 174.227 172.223 174.345 172.237 174.46C172.251 174.576 172.295 174.687 172.364 174.781C172.433 174.874 172.525 174.949 172.632 174.997C172.738 175.046 172.855 175.065 172.972 175.055C173.129 175.055 173.278 175.279 173.576 175.51C173.346 175.544 173.113 175.558 172.881 175.552C171.055 175.106 169.128 175.346 167.467 176.223C167.284 176.331 166.904 176.057 166.638 175.983C166.372 175.908 165.809 175.643 165.47 175.776C164.997 175.991 164.806 175.999 164.524 175.552C164.274 175.255 163.973 175.002 163.638 174.806C163.098 174.376 162.162 173.979 162.096 173.523C161.955 172.571 161.93 171.816 160.984 171.866C161.175 171.394 161.631 170.831 161.507 170.45C161.419 170.218 161.396 169.969 161.439 169.725C161.48 169.482 161.588 169.255 161.747 169.066C162.228 168.346 162.054 167.493 161.465 167.41C160.213 167.302 158.979 167.228 157.694 167.228C156.408 167.228 154.934 167.344 153.549 167.385C153.277 167.332 153.013 167.249 152.761 167.137C153.06 166.971 153.142 166.896 153.225 166.888C155.845 166.673 158.464 166.524 161.075 166.234C162.037 166.126 163.173 166.425 163.936 165.554C164.466 164.95 164.881 164.254 165.362 163.608C166.464 162.142 167.691 160.742 168.677 159.185C169.183 158.356 170.551 157.719 169.813 156.576C170.237 156.312 170.644 156.02 171.031 155.706C171.309 155.414 171.562 155.097 171.786 154.762C171.977 154.505 172.151 154.248 172.333 153.984C172.551 153.576 172.831 153.205 173.163 152.882C173.552 152.584 173.776 152.368 173.345 151.979C172.914 151.59 172.416 151.2 171.943 150.811C172.316 150.776 172.69 150.816 173.046 150.927C173.519 150.977 174.182 151.101 174.439 150.852C174.862 150.455 174.796 149.85 174.116 149.536C174.033 149.536 173.991 149.37 173.85 149.18C175.276 149.776 175.616 149.568 175.799 148.268C175.799 147.945 176.196 147.672 176.387 147.365C176.578 147.059 176.959 146.694 176.91 146.422C176.86 146.148 176.445 145.792 176.139 145.593C175.838 145.402 175.522 145.239 175.193 145.104C173.685 144.334 172.217 143.447 170.659 142.827C169.1 142.205 167.566 141.841 166.042 141.294C164.516 140.747 162.808 139.968 161.159 139.422C159.509 138.876 157.66 138.403 155.895 137.931C154.224 137.419 152.528 136.996 150.813 136.663C148.326 136.266 145.723 136.092 143.178 135.836C141.197 135.603 139.232 135.322 137.251 135.115C137.076 135.106 136.9 135.135 136.736 135.198C136.573 135.261 136.423 135.356 136.298 135.48C136.149 135.645 136.206 136.092 136.298 136.365C136.644 137.401 137.063 138.411 137.549 139.389C138.014 140.217 137.814 141.501 139 141.874C138.71 143.63 140.434 143.306 141.221 144.151L139.564 143.944C139.562 144.107 139.54 144.268 139.497 144.425C139.133 145.361 139.315 145.925 140.434 146.082C140.816 146.131 141.147 146.529 141.67 146.909C140.79 147.034 139.888 146.603 139.647 147.597C139.574 147.839 139.551 148.091 139.577 148.342C139.605 148.592 139.682 148.835 139.804 149.055C139.995 149.271 140.716 149.055 141.122 148.997L143.833 150.711C143.097 150.604 142.397 150.32 141.794 149.884C141.064 149.279 140.401 149.817 139.788 149.958C139.548 150.007 139.506 151.009 139.315 151.854C138.486 152.327 138.486 152.335 139.365 153.395C139.522 153.586 139.439 153.966 139.473 154.224L138.511 154.157C138.229 154.157 137.939 154.157 137.682 154.107C137.67 154.41 137.693 154.713 137.748 155.01C137.806 155.201 138.022 155.35 138.263 155.64L137.144 156.121C137.019 156.169 136.906 156.244 136.812 156.339C136.718 156.433 136.645 156.546 136.595 156.671C136.546 156.794 136.523 156.927 136.528 157.06C136.532 157.194 136.564 157.325 136.621 157.446C136.687 157.628 137.21 157.67 137.533 157.744C137.722 157.773 137.914 157.79 138.105 157.793L137.981 159.135L139.829 158.307L140.029 158.605C139.788 158.887 139.597 159.276 139.29 159.434C138.346 159.881 138.511 160.469 139.067 161.422L140.874 159.649C141.702 159.21 141.702 159.21 142.217 158.225C142.3 158.075 142.49 157.868 142.631 157.868C142.994 157.903 143.356 157.798 143.642 157.572C143.928 157.346 144.115 157.02 144.165 156.658C144.165 156.535 144.38 156.443 144.496 156.336C145.449 155.507 146.47 154.679 147.348 153.759C148.592 152.435 149.735 151.001 150.921 149.618L151.219 149.767C151.201 150.013 151.139 150.255 151.037 150.48C149.901 152.037 148.765 153.594 147.571 155.101C146.378 156.609 145.085 158.265 143.692 159.756C141.811 161.844 139.937 163.964 137.889 165.87C135.787 167.788 133.572 169.58 131.257 171.237C128.895 172.951 126.425 174.55 123.912 176.033C121.45 177.493 118.913 178.826 116.311 180.025C112.796 181.632 109.232 183.147 105.618 184.489C102.848 185.517 99.9719 186.237 97.1369 187.066C95.5699 187.521 94.0109 188.001 92.4119 188.316C89.0959 188.971 85.7799 189.55 82.4059 190.105C80.6399 190.403 78.8499 190.602 77.0759 190.842C74.8369 191.14 72.5989 191.53 70.3529 191.671C68.3049 191.82 66.2079 191.721 64.1929 191.671C63.6099 191.624 63.0299 191.533 62.4609 191.397V191.132C63.3889 191.132 64.3179 191.182 65.2379 191.132C67.1199 191.033 68.9929 190.9 70.8749 190.727C71.4479 190.68 72.0089 190.534 72.5329 190.295C72.8399 190.154 73.0389 189.732 73.2289 189.401C73.2289 189.351 72.9309 188.995 72.7489 188.971C72.1599 188.896 71.5459 188.921 70.9499 188.879C70.6699 188.844 70.3929 188.791 70.1209 188.722V188.366H71.8529C72.2909 188.442 72.7419 188.361 73.1259 188.136C73.5099 187.912 73.8019 187.559 73.9509 187.14C74.0409 186.823 74.1019 186.499 74.1329 186.171C73.7709 186.075 73.3969 186.03 73.0219 186.038C72.6489 186.104 72.3259 186.41 71.9609 186.519C71.7619 186.569 71.5129 186.428 71.2889 186.37C71.3809 186.179 71.4299 185.931 71.5799 185.814C71.9609 185.525 72.4089 185.293 72.7979 185.036C72.9629 185.218 73.1659 185.361 73.3919 185.455C73.6189 185.549 73.8629 185.592 74.1079 185.58C74.3529 185.568 74.5929 185.502 74.8089 185.386C75.0259 185.27 75.2139 185.109 75.3599 184.911C75.7159 184.374 75.5169 183.918 74.8789 183.943C74.1559 184.007 73.4359 184.11 72.7239 184.249L72.1769 183.421C72.4569 183.372 72.7339 183.307 73.0049 183.222C73.3539 183.073 73.6849 182.883 74.0249 182.708L73.4859 181.706C73.2209 181.218 72.9559 180.721 72.6569 180.248C72.1429 179.421 71.6209 178.592 71.0569 177.763C70.9739 177.647 70.7009 177.631 70.5099 177.614C70.3199 177.598 69.9049 177.614 69.5979 177.614H68.6369V177.357L70.1949 177.225C70.3279 176.908 70.3369 176.552 70.2199 176.229C70.1039 175.906 69.8699 175.637 69.5649 175.478C69.3909 175.361 69.1089 175.171 69.1259 175.03C69.1559 174.785 69.1359 174.536 69.0689 174.299C69.0009 174.061 68.8869 173.84 68.7329 173.647C68.5779 173.454 68.3869 173.294 68.1699 173.175C67.9519 173.057 67.7139 172.984 67.4679 172.959C68.1059 171.907 68.0649 171.75 67.0619 171.088C67.0619 170.74 67.1859 170.217 67.0619 170.127C66.1079 169.505 66.4069 168.471 66.1249 167.642C65.1139 164.669 63.9779 161.736 62.9169 158.779C62.6519 158.066 62.2209 157.877 61.7069 158.44C60.2599 159.873 58.9399 161.427 57.7609 163.086C55.7129 166.358 53.2509 169.406 51.8169 173.026C50.9879 175.113 50.0259 177.168 49.2469 179.246C48.6829 180.803 48.2179 182.394 47.8539 184.008C47.5059 185.403 47.2999 186.83 47.2409 188.267C47.2409 190.345 46.7849 192.407 47.3239 194.52C48.2609 198.373 49.7999 202.054 51.8829 205.429C53.8439 208.57 56.1829 211.46 58.8469 214.034C60.8279 215.923 62.9909 217.596 65.1139 219.352C67.8069 221.457 70.7259 223.258 73.8179 224.72C75.8989 225.788 78.1529 226.492 80.3339 227.362C83.0069 228.638 85.8869 229.421 88.8389 229.673C90.9359 230.013 92.9839 230.351 95.1309 230.617C96.3659 230.774 97.6169 230.774 98.8689 230.848C100.909 230.973 102.94 231.196 104.97 231.196C107.002 231.196 108.908 231.006 110.873 230.824C113.965 230.526 117.066 230.269 120.133 229.788C122.736 229.379 125.31 228.805 127.842 228.074C130.52 227.295 133.139 226.326 135.751 225.332C138.294 224.425 140.785 223.378 143.212 222.193C146.818 220.321 150.349 218.284 153.831 216.172C155.965 214.858 158.017 213.415 159.973 211.847C161.631 210.515 163.09 208.883 164.757 207.524C166.236 206.238 167.558 204.781 168.694 203.184C169.217 202.504 169.821 201.875 170.56 201.022C170.574 201.298 170.574 201.574 170.56 201.85C170.395 202.822 169.889 203.702 169.133 204.335C168.246 205.114 168.006 206.405 166.853 207.043C166.364 207.317 165.527 207.872 166.024 208.601C165.353 209.222 164.25 209.793 164.284 210.307C164.334 211.219 164.019 211.334 163.356 211.483C163.13 211.533 162.93 211.663 162.792 211.847C162.087 212.925 161.432 214.026 160.139 214.531C159.965 214.597 159.841 215.037 159.882 215.269C159.923 215.5 160.296 215.517 160.537 215.55C160.941 215.571 161.344 215.571 161.747 215.55V215.882C161.479 215.983 161.201 216.058 160.918 216.105C160.325 216.055 159.729 216.055 159.136 216.105C158.5 216.302 157.886 216.563 157.304 216.884L157.37 217.405L160.521 217.985V218.267H157.105C156.618 218.25 156.136 218.349 155.695 218.556C155.339 218.755 155.14 219.236 154.867 219.584C155.247 219.88 155.676 220.107 156.136 220.254C157.578 220.413 159.037 220.445 160.495 220.528C158.771 221.224 156.815 220.23 155.182 221.356C154.353 220.33 153.656 220.197 152.587 220.809C151.908 221.207 152.065 221.638 152.48 222.375L154.966 221.729L155.049 222.441L152.894 223.153C152.371 222.085 151.368 222.326 150.473 222.441C150.175 222.441 149.926 222.955 149.645 223.229C149.932 223.461 150.246 223.659 150.581 223.817C150.874 223.867 151.174 223.867 151.467 223.817C152.562 223.817 152.562 223.817 153.201 224.744L152.902 224.678C152.627 224.571 152.333 224.518 152.038 224.525C151.742 224.532 151.451 224.597 151.18 224.718C150.911 224.837 150.667 225.011 150.465 225.226C150.262 225.441 150.104 225.693 150.001 225.97C149.942 226.063 149.866 226.142 149.776 226.205C149.686 226.267 149.585 226.311 149.478 226.334C149.025 226.381 148.576 226.464 148.135 226.583C147.845 226.699 147.672 227.072 147.448 227.337C147.704 227.552 147.953 227.941 148.218 227.957C149.238 228.033 150.265 227.957 151.195 227.957C151.459 228.248 151.692 228.72 151.899 228.703C152.86 228.653 153.814 228.472 154.767 228.339C154.974 228.339 155.206 228.206 155.381 228.273C155.451 228.332 155.504 228.408 155.534 228.493C155.564 228.579 155.572 228.672 155.554 228.762C155.421 228.93 155.234 229.047 155.024 229.093C154.398 229.242 153.764 229.357 153.126 229.44C152.927 229.44 152.72 229.308 152.504 229.25C151.665 228.923 150.792 228.692 149.901 228.563C149.504 228.563 149.073 229.192 148.641 229.532C149.031 229.739 149.412 230.103 149.802 230.12C150.764 230.12 151.733 230.003 152.745 229.929L152.961 230.6C152.131 230.757 151.352 230.882 150.573 231.097C150.424 231.138 150.283 231.528 150.291 231.743C150.299 231.958 150.606 232.091 150.788 232.107C152.015 232.182 153.275 232.216 154.543 232.265C154.543 232.952 155.083 233.035 155.936 232.82C156.802 232.651 157.681 232.565 158.564 232.564C158.721 232.564 158.887 232.795 159.128 232.969C156.757 233.284 156.69 233.334 156.251 234.974C155.467 234.997 154.687 235.094 153.922 235.264C153.432 235.413 152.695 235.918 152.703 236.241C152.703 237.201 153.532 236.664 154.062 236.704C154.594 236.746 155.264 237.02 155.721 236.813C156.467 236.456 157.064 235.984 157.694 236.912C157.724 236.951 157.764 236.981 157.808 237.002C157.853 237.025 157.902 237.036 157.95 237.036C159.194 236.796 160.437 236.539 161.747 236.274C162.013 236.374 162.452 236.704 162.825 236.646C163.585 236.495 164.329 236.271 165.047 235.976C165.768 235.719 166.414 234.966 167.26 235.694C167.334 235.761 167.526 235.694 167.649 235.694C169.133 235.339 170.595 234.897 172.026 234.369C174.514 233.325 176.91 232.133 179.305 230.932C179.695 230.741 179.902 230.202 180.192 229.822C182.016 228.91 183.591 227.842 183.633 227.138L182.372 227.047C184.394 225.953 186.218 225.001 188.01 223.99C188.514 223.645 188.985 223.255 189.419 222.823L189.186 222.375L187.089 222.947L192.162 219.145L191.334 218.433C192.162 217.472 193.547 216.975 193.82 215.5L192.842 215.211C193.621 214.548 194.293 214.026 194.89 213.422C195.082 213.113 195.217 212.775 195.288 212.42L194.301 212.328L193.911 212.27C194.65 211.616 195.337 211.086 195.918 210.456C196.116 210.249 196.025 209.777 196.075 209.429C195.764 209.407 195.452 209.443 195.155 209.537C194.002 210.266 192.892 211.06 191.748 211.798C191.408 211.934 191.051 212.023 190.687 212.064C190.793 211.876 190.915 211.698 191.052 211.533C191.172 211.425 191.305 211.333 191.449 211.259C193.779 210.026 195.486 208.071 197.252 206.216C197.435 206.025 197.336 205.57 197.368 205.23L196.539 205.321H196.456C196.945 204.418 197.509 203.474 197.956 202.48C198.097 202.165 197.916 201.718 197.882 201.337L196.523 201.834L198.421 199.589L198.678 199.68C198.745 200.981 198.844 202.289 198.886 203.598C198.927 204.906 198.886 206.083 198.886 207.59C198.678 208.021 197.791 208.584 198.172 209.595H200.61L200.684 209.893L197.825 210.581C197.825 210.912 197.741 211.549 197.932 211.649C198.386 211.833 198.879 211.902 199.366 211.847C199.889 211.847 200.402 211.724 201.074 211.632C200.908 211.964 200.883 212.113 200.825 212.121C200.129 212.295 199.416 212.402 198.728 212.601C198.22 212.719 197.742 212.941 197.326 213.255C197.145 213.414 197.326 213.951 197.286 214.316C197.825 214.316 198.371 214.316 198.943 214.208C199.168 214.208 199.399 213.836 199.573 213.869C201.091 214.208 202.458 213.645 203.867 213.297C204.256 213.247 204.648 213.247 205.037 213.297C204.207 213.779 203.318 214.149 202.392 214.399C201.408 214.59 200.443 214.867 199.507 215.227C199.018 215.476 198.679 215.641 198.198 215.401C197.426 215.011 196.929 215.45 196.539 215.981C196.15 216.51 196.374 217.017 197.054 217.057C197.379 217.046 197.703 217.01 198.023 216.95C198.578 216.95 199.15 216.95 199.681 216.826C200.211 216.701 201.132 216.735 201.488 216.345C202.317 215.517 202.831 215.675 203.453 216.345L201.795 217.174H200.245C199.035 217.232 198.057 218.341 196.688 217.894C196.398 217.795 195.86 218.184 195.536 218.474C195.213 218.764 195.313 219.095 195.204 219.409C195.519 219.545 195.857 219.619 196.2 219.626C197.128 219.451 197.956 218.623 198.993 219.278C199.051 219.278 199.184 219.278 199.275 219.228L202.027 218.176C202.69 219.103 201.132 219.004 201.115 219.626C199.458 219.194 197.974 219.302 196.921 220.827C196.757 220.656 196.577 220.503 196.382 220.371C196.088 220.225 195.754 220.179 195.432 220.242C195.109 220.305 194.817 220.473 194.6 220.719C194.466 220.91 194.399 221.14 194.409 221.373C194.798 221.624 195.241 221.777 195.702 221.821C196.832 221.69 197.956 221.502 199.068 221.257C199.507 221.174 199.897 220.968 200.361 220.876C200.598 220.844 200.837 220.844 201.074 220.876V221.157L199.947 221.986C199.432 221.829 198.993 221.531 198.612 221.596C197.876 221.728 197.165 221.974 196.506 222.326C196.208 222.483 196.1 222.996 195.909 223.352C196.241 223.501 196.614 223.825 196.905 223.767C197.899 223.551 198.868 223.211 199.938 222.889L201.405 223.22C200.541 223.519 199.708 223.902 198.919 224.364C198.755 224.456 198.568 224.503 198.379 224.495C197.556 224.383 196.723 224.349 195.893 224.396C195.512 224.446 195.213 225.042 194.882 225.398C195.245 225.567 195.618 225.711 196.001 225.829C196.486 225.929 196.989 225.888 197.451 225.712C197.914 225.536 198.316 225.232 198.612 224.835C198.645 225.231 198.556 225.627 198.355 225.97C198.131 226.368 197.775 226.74 198.355 227.146C199.126 227.709 200.411 227.022 200.742 226.169C201.191 225.382 201.749 224.662 202.4 224.032L202.972 224.736C202.716 225.664 201.041 225.324 201.53 226.782C202.558 226.707 203.66 226.997 204.447 225.953C204.506 225.863 204.812 225.953 205.003 225.953C205.834 226.059 206.676 226.014 207.49 225.821C207.921 225.631 208.891 224.993 208.319 224.024C208.269 223.941 208.502 223.626 208.659 223.493C209.571 222.715 209.587 222.666 208.784 221.837L210.375 220.429L210.757 220.868C210.374 221.35 210.02 221.853 209.696 222.375C209.646 222.467 209.902 222.815 210.085 222.93C210.757 223.352 211.212 222.789 211.742 222.533C212.108 222.402 212.485 222.313 212.87 222.268L212.936 222.599C212.108 222.889 211.635 223.758 210.449 223.527C209.264 223.294 208.792 223.883 209.132 225.547L211.295 224.438C211.547 224.635 211.858 224.744 212.178 224.744C212.498 224.744 212.81 224.635 213.061 224.438C213.733 224.065 214.304 223.079 215.324 223.734C215.324 223.734 215.448 223.734 215.515 223.684L217.794 222.855C220.51 221.966 223.149 220.858 225.686 219.542C228.082 218.168 230.71 217.148 232.939 215.558C235.863 213.396 238.667 211.077 241.337 208.609C244.115 206.124 246.237 203.068 248.4 200.061C250.452 197.322 251.993 194.235 252.951 190.95C253.117 190.321 253.341 189.707 253.523 189.086C254.004 187.372 254.484 185.665 254.949 183.951C255.051 183.539 255.13 183.121 255.181 182.7C255.435 181.462 255.604 180.209 255.686 178.948C255.686 177.383 255.372 175.808 255.364 174.243C255.313 170.816 254.621 167.428 253.324 164.254C252.812 162.819 252.172 161.433 251.409 160.112C250.24 158.233 248.923 156.469 247.562 154.696C246.775 153.652 245.905 152.675 245.027 151.697C244.612 151.234 244.147 151.076 243.775 151.772C243.185 152.857 242.531 153.917 242.025 155.085C241.627 155.988 240.666 156.742 241.113 157.951C241.196 158.175 241.354 159.309 240.284 158.994C240.185 158.994 239.895 159.301 239.845 159.508C239.671 160.162 239.629 160.866 239.414 161.504C239.049 162.564 239.116 162.788 240.044 163.086C240.264 163.606 240.439 164.143 240.566 164.693C240.566 164.958 240.326 165.264 240.185 165.522L239.969 165.373C239.87 164.867 239.778 164.371 239.663 163.765C238.602 164.536 238.544 165.206 239.331 165.878C239.455 165.954 239.561 166.056 239.641 166.177C239.722 166.299 239.777 166.436 239.801 166.579C239.824 166.723 239.817 166.87 239.778 167.01C239.741 167.151 239.673 167.281 239.579 167.393C239.356 166.83 239.248 166.126 238.444 166.565C238.013 166.822 238.137 168.379 238.56 168.652C239.323 169.149 239.389 169.887 238.726 170.384L238.154 169.175H237.88C237.664 170.052 236.454 170.632 237.209 171.875L237.69 171.7C237.847 171.626 237.988 171.543 238.427 171.303C238.105 172.289 237.88 172.959 237.648 173.672L237.391 173.589L236.985 172.156C236.497 172.367 236.101 172.747 235.873 173.227C235.645 173.707 235.597 174.253 235.741 174.765C236.943 174.765 236.752 175.784 237.092 176.422C236.471 176.472 235.832 176.671 235.85 175.701C235.85 175.519 235.468 175.204 235.236 175.171C235.004 175.138 234.771 175.436 234.622 175.643C234.473 175.85 234.291 176.289 234.084 176.579C233.08 177.971 233.164 178.194 234.821 178.459C234.814 178.864 234.928 179.261 235.148 179.6C235.368 179.94 235.684 180.206 236.057 180.364C236.15 180.422 236.23 180.496 236.294 180.584C236.358 180.672 236.405 180.772 236.43 180.878C236.629 181.831 237.026 182.419 238.145 181.905C238.312 182.658 238.361 183.272 237.541 183.462C237.175 182.874 236.952 182.121 236.471 181.863C236.221 181.748 235.998 181.58 235.818 181.372C235.638 181.163 235.504 180.919 235.427 180.654C235.304 180.511 235.155 180.393 234.987 180.308C234.819 180.223 234.637 180.171 234.449 180.157C233.954 180.681 233.573 181.302 233.329 181.98C233.263 182.203 234.034 182.658 234.489 183.073L234.838 184.497L234.929 184.68C234.49 184.563 234.078 184.367 233.71 184.1C233.297 183.67 233.089 182.966 232.293 183.222C231.924 183.354 231.603 183.594 231.37 183.909C231.139 184.225 231.007 184.603 230.992 184.994C230.458 185.403 229.951 185.846 229.474 186.32C229.391 186.41 229.624 187.007 229.814 187.082C229.99 187.13 230.174 187.138 230.353 187.103C230.531 187.069 230.7 186.994 230.845 186.884C230.99 186.775 231.108 186.633 231.19 186.47C231.271 186.308 231.313 186.128 231.314 185.947L233.438 184.812L232.376 187.132C231.804 186.867 231.381 187.239 231.306 187.959C231.3 188.128 231.334 188.294 231.407 188.445C231.479 188.597 231.586 188.729 231.721 188.83C231.833 188.882 231.956 188.909 232.079 188.908C232.203 188.908 232.325 188.879 232.436 188.825C232.547 188.771 232.645 188.693 232.722 188.596C232.8 188.499 232.854 188.386 232.882 188.267C233.015 187.794 233.18 187.255 233.768 187.554C234.092 187.72 234.225 188.25 234.473 188.663C232.89 189.227 232.749 189.45 233.072 190.635C234.581 190.718 234.888 190.445 234.68 189.136L235.584 189.351L236.04 190.776C235.874 190.727 235.667 190.61 235.609 190.66C235.171 191.034 234.768 191.447 234.407 191.894C234.316 192.01 234.499 192.548 234.556 192.548C234.995 192.559 235.432 192.498 235.85 192.367C236.015 192.3 236.015 191.87 236.181 191.695C236.517 191.394 236.875 191.117 237.25 190.868C237.25 191.62 237.308 192.05 237.334 192.472ZM148.981 235.851C149.063 235.951 149.238 236.299 149.495 236.39C149.961 236.585 150.476 236.633 150.971 236.528C151.466 236.423 151.917 236.17 152.264 235.801C152.405 235.661 152.587 235.363 152.529 235.255C152.465 235.155 152.379 235.07 152.28 235.005C152.18 234.941 152.067 234.9 151.948 234.882C151.244 234.882 150.539 235.023 149.835 235.04C149.517 235.045 149.202 234.977 148.914 234.841C148.542 234.667 148.243 234.27 147.871 234.212C147.152 234.117 146.425 234.117 145.707 234.212C145.557 234.252 145.42 234.33 145.309 234.439C145.199 234.548 145.119 234.684 145.077 234.833C145.096 234.99 145.156 235.14 145.25 235.267C145.345 235.395 145.471 235.496 145.616 235.562C146.669 235.711 147.73 235.744 148.981 235.835V235.851ZM142.141 233.069C141.791 233.188 141.447 233.333 141.114 233.499C141.114 233.499 141.18 234.079 141.33 234.145C141.97 234.435 142.644 234.647 143.335 234.775C143.534 234.775 143.891 234.377 144.015 234.095C144.074 233.954 143.8 233.549 143.585 233.449C143.115 233.281 142.633 233.153 142.141 233.069ZM152.297 233.367C151.368 232.447 149.528 232.274 147.895 233.027C148.094 233.25 148.243 233.582 148.443 233.624C149.271 233.781 150.142 233.855 150.996 233.954C151.294 233.996 151.658 233.905 151.882 234.046C152.424 234.428 153.075 234.623 153.738 234.603C154.401 234.581 155.038 234.345 155.554 233.93C155.186 233.442 154.646 233.111 154.044 233.004C153.441 232.896 152.821 233.02 152.305 233.35L152.297 233.367ZM143.353 232.555C144.22 233.074 145.218 233.334 146.228 233.3C146.569 233.3 146.909 232.82 147.257 232.555C146.909 232.315 146.593 231.95 146.212 231.876C145.259 231.685 144.181 231.105 143.353 232.555ZM137.69 232.455C138.005 232.812 138.105 233.052 138.263 233.093C138.725 233.23 139.206 233.294 139.688 233.284C139.838 233.284 139.954 232.779 140.078 232.505C139.682 232.285 139.258 232.118 138.817 232.008C138.503 231.983 138.163 232.256 137.69 232.455ZM142.423 232.315C142.614 232.141 143.186 231.834 143.145 231.627C142.979 230.683 142.101 230.683 141.388 230.641C141.156 230.641 140.675 231.064 140.691 231.279C140.741 232.157 141.529 232.157 142.423 232.306V232.315ZM142.83 229.814C143.047 230.176 143.365 230.467 143.744 230.653C144.124 230.838 144.55 230.909 144.968 230.856C145.351 230.813 145.737 230.882 146.079 231.055C146.561 231.46 147.147 231.721 147.77 231.809C148.393 231.897 149.028 231.808 149.603 231.552C149.785 231.495 150.059 231.214 150.025 231.13C149.943 230.923 149.727 230.633 149.553 230.625C148.566 230.55 147.712 229.714 146.635 230.178C146.494 230.236 146.204 229.954 145.806 229.722L148.608 229.375C148.434 229.068 148.384 228.812 148.227 228.703C147.87 228.413 147.452 228.206 147.005 228.095C146.558 227.985 146.091 227.975 145.64 228.066C145.127 228.215 144.911 228.156 144.621 227.701C144.423 227.372 144.103 227.135 143.731 227.038C143.359 226.942 142.964 226.996 142.631 227.188C142.482 227.254 142.407 227.867 142.449 227.883C143.087 228.165 143.734 228.397 144.388 228.613C144.637 228.687 144.944 228.613 145.143 228.736C145.342 228.861 145.143 229.159 145.143 229.375C144.888 229.424 144.627 229.424 144.372 229.375C144.244 229.294 144.102 229.242 143.953 229.22C143.805 229.198 143.653 229.207 143.508 229.248C143.363 229.287 143.228 229.356 143.111 229.451C142.995 229.546 142.899 229.664 142.83 229.796V229.814ZM136.62 231.175C136.13 230.914 135.813 230.642 135.585 230.675C135.352 230.707 135.12 231.073 134.889 231.288C135.151 231.518 135.451 231.7 135.775 231.826C135.954 231.826 136.204 231.5 136.62 231.175ZM136.62 231.175L136.646 231.188V231.155L136.62 231.175ZM137.625 229.217C137.629 230.489 138.176 230.989 139.157 230.816C139.407 230.816 139.813 230.617 139.838 230.46C139.85 230.319 139.826 230.177 139.768 230.048C139.71 229.918 139.62 229.807 139.506 229.722C138.89 229.516 138.262 229.346 137.625 229.217ZM141.446 229.971C141.851 229.573 142.274 229.341 142.274 229.142C142.208 228.124 141.221 228.53 140.667 228.248C140.583 228.248 140.277 228.613 140.078 228.812L141.446 229.971ZM196.427 227.101C195.665 227.555 195.008 227.712 194.392 227.03C195.066 226.208 195.521 226.211 196.427 227.101ZM144.67 225.722C144.67 227.122 145.052 227.378 146.51 227.237C146.776 227.237 147.016 226.889 147.273 226.707C147.058 226.418 146.892 225.945 146.619 225.879C145.976 225.762 145.324 225.707 144.67 225.714V225.722ZM196.427 227.101L196.448 227.088V227.122L196.427 227.101ZM148.425 226.251C148.956 225.696 149.595 225.34 149.586 224.976C149.586 224.205 148.757 224.297 148.235 224.255C147.712 224.214 146.967 224.123 147.082 224.869C147.149 225.307 147.829 225.655 148.425 226.243V226.251ZM193.48 224.396C192.892 224.927 192.105 225.299 192.063 225.746C192.021 226.193 192.759 226.334 193.315 226.102C194.069 225.746 193.845 225.249 193.48 224.364V224.396ZM193.762 224.231C194.459 223.875 195.371 224.231 195.363 223.203C195.363 222.914 195.006 222.624 194.815 222.334L193.157 223.551L193.762 224.231ZM240.201 200.798L240.276 201.37C240.665 201.46 241.065 201.483 241.461 201.436C242.15 201.221 242.291 200.674 241.934 199.78L240.201 200.798ZM240.177 200.152L241.312 198.86C240.989 198.637 240.575 198.181 240.35 198.255C239.923 198.464 239.568 198.796 239.331 199.208C239.289 199.257 239.77 199.688 240.177 200.136V200.152ZM237.306 192.465C237.014 192.37 236.698 192.384 236.416 192.504C236.124 192.628 235.889 192.857 235.758 193.145C235.688 193.306 235.653 193.48 235.653 193.654C235.653 193.829 235.688 194.003 235.758 194.164C235.824 194.312 236.321 194.404 236.587 194.321C237.643 193.958 237.739 193.694 237.306 192.465ZM237.306 192.465L237.334 192.474V192.472L237.3 192.449L237.306 192.465ZM75.7289 189.365C75.2819 188.947 74.9179 188.466 74.7879 188.556C74.3069 188.795 73.8559 189.089 73.4449 189.434C73.7099 189.675 74.0089 190.13 74.2739 190.097C74.7919 189.926 75.2829 189.679 75.7289 189.365ZM79.7779 188.804V188.456C79.5379 188.325 79.2889 188.076 79.0399 188.076C78.4259 188.076 77.8119 188.134 77.2079 188.25C76.8769 188.289 76.5649 188.428 76.3129 188.647C76.1969 188.78 76.3129 189.351 76.4289 189.418C76.7719 189.561 77.1469 189.609 77.5149 189.558C77.9949 189.52 78.4679 189.423 78.9239 189.269C79.2219 189.139 79.5069 188.984 79.7779 188.804ZM75.7289 189.365L75.7489 189.385V189.351L75.7289 189.365ZM76.4709 185.856C75.3929 185.856 74.5889 186.519 74.6629 187.173C74.6629 187.43 75.0119 187.844 75.2189 187.86C76.0479 187.927 77.1829 187.032 77.0429 186.452C76.9679 186.154 76.5699 185.939 76.4709 185.848V185.856ZM229.685 185.011L229.947 184.374C229.665 184.29 229.309 184.058 229.118 184.158C228.68 184.426 228.271 184.74 227.899 185.094C228.098 185.276 228.356 185.657 228.497 185.616C228.915 185.46 229.314 185.258 229.685 185.011ZM229.685 185.011L229.681 185.02L229.723 184.986L229.685 185.011ZM230.005 184.473C230.549 183.986 231.063 183.469 231.547 182.924C231.696 182.725 231.596 182.344 231.614 182.046C231.282 182.046 230.851 181.954 230.66 182.121C230.263 182.511 229.932 182.965 229.681 183.462C229.566 183.62 229.832 183.951 230.005 184.464V184.473ZM232.459 181.698C232.957 181.081 233.409 180.428 233.81 179.743C233.885 179.602 233.512 179.031 233.255 178.964C232.657 178.799 231.771 179.793 231.795 180.622C231.803 180.878 232.119 181.143 232.459 181.69V181.698ZM216.451 176.381L216.377 176.878C216.833 177.051 216.94 178.003 217.711 177.383C217.927 177.217 217.885 176.728 217.969 176.381H216.451ZM214.627 176.007C215.009 176.645 215.531 176.836 216.111 176.397C216.166 176.277 216.196 176.147 216.196 176.015C216.196 175.885 216.166 175.755 216.111 175.635C215.614 175.37 215.009 175.055 214.645 175.975L214.627 176.007ZM210.731 175.677L211.162 176.14L212.066 175.436C211.875 175.271 211.585 174.931 211.519 174.963C211.231 175.172 210.968 175.411 210.731 175.677ZM218.358 174.55C218.084 175.519 218.358 175.892 219.03 175.784C219.304 175.784 219.535 175.436 219.783 175.245L218.358 174.55ZM216.692 174.806L217.123 175.113C217.383 174.842 217.619 174.548 217.828 174.235C217.828 174.235 217.471 173.912 217.28 173.738L216.692 174.806ZM167.302 174.898C167.81 174.822 168.305 174.672 168.768 174.45C170.17 173.531 171.546 172.561 172.855 171.51C173.01 171.33 173.127 171.12 173.2 170.894C173.273 170.668 173.299 170.429 173.278 170.193C173.278 168.843 172.084 168.23 171.281 167.393C171.003 167.164 170.654 167.038 170.294 167.037C169.484 166.937 168.663 167.072 167.927 167.426C167.192 167.78 166.575 168.338 166.149 169.034C165.627 169.816 165.214 170.666 164.922 171.559C164.832 171.937 164.822 172.328 164.897 172.709C164.971 173.089 165.126 173.449 165.352 173.763C165.577 174.079 165.868 174.342 166.205 174.534C166.541 174.727 166.915 174.846 167.302 174.881V174.898ZM185.249 167.799C185.63 167.344 186.003 167.087 186.011 166.838C186.019 166.59 185.572 166.01 185.473 166.059C185.091 166.19 184.758 166.43 184.511 166.747C184.444 166.813 184.875 167.252 185.249 167.766V167.799ZM184.291 166.285C183.886 165.558 183.361 165.335 182.745 165.687C182.554 165.803 182.439 166.515 182.554 166.582C183.138 167.026 183.714 166.727 184.291 166.285ZM184.291 166.285L184.304 166.308V166.276L184.291 166.285ZM187.404 165.77L188.233 164.9C187.926 164.669 187.636 164.304 187.305 164.262C186.973 164.221 186.716 164.586 186.417 164.768L187.404 165.77ZM185 165.157L185.978 164.113C185.694 163.919 185.388 163.758 185.066 163.633C184.965 163.586 184.852 163.569 184.741 163.584C184.631 163.599 184.526 163.643 184.44 163.714C184.354 163.785 184.289 163.879 184.252 163.984C184.217 164.09 184.212 164.203 184.237 164.312C184.287 164.52 184.644 164.735 185 165.124V165.157ZM186.758 163.235L187.587 162.315L186.758 161.645C186.55 161.91 186.252 162.142 186.186 162.474C186.186 162.581 186.5 162.838 186.758 163.202V163.235ZM189.783 163.21L189.832 162.523C189.372 162.498 188.909 162.498 188.449 162.523C188.399 162.523 188.382 162.929 188.349 163.144L189.783 163.21ZM191.308 160.386C190.04 160.46 189.111 160.569 188.59 159.326L187.553 160.734L189.261 161.14C189.632 161.461 190.08 161.678 190.563 161.77C190.753 161.753 190.968 161.049 191.308 160.386ZM193.141 157.489C192.716 156.679 192.318 156.202 191.574 156.121C191.334 156.121 191.052 156.551 190.745 156.791C190.977 157.032 191.185 157.421 191.467 157.495C192.023 157.556 192.584 157.554 193.141 157.489ZM193.141 157.489L193.157 157.521V157.487L193.141 157.489ZM168.865 131.451C169.324 131.929 170.129 132.084 170.203 132.937C170.203 133.044 170.692 133.251 170.767 133.185C170.865 133.103 170.945 133.003 171.002 132.889C171.059 132.774 171.092 132.65 171.098 132.522C171.007 131.935 170.816 131.362 170.626 130.642L172.084 130.849L172.242 129.358C173.137 129.002 173.427 128.53 173.071 127.926C172.939 127.685 172.831 127.433 172.748 127.171C173.046 127.081 173.353 127.014 173.635 126.898C173.916 126.783 174.373 126.567 174.356 126.476C174.198 125.722 174.704 125.457 175.185 125.085C175.409 124.822 175.582 124.518 175.69 124.19C175.807 123.975 175.906 123.751 176.03 123.536C176.238 123.162 176.445 122.782 176.677 122.426C176.835 122.179 177.013 121.947 177.208 121.73C177.39 121.514 177.613 121.341 177.788 121.116C178.974 119.676 180.093 118.185 181.352 116.801C182.181 115.899 182.24 115.825 181.137 115.278C180.879 115.125 180.599 115.011 180.308 114.938C177.589 114.457 174.878 113.902 172.143 113.554C169.598 113.232 167.02 113.083 164.458 112.934C162.303 112.809 160.147 112.776 157.992 112.735C154.172 112.616 150.349 112.812 146.56 113.322C145.367 113.505 144.124 113.413 142.93 113.596C140.442 113.977 137.955 114.425 135.469 114.913C133.546 115.286 131.647 115.741 129.741 116.213C128.894 116.503 128.027 116.727 127.146 116.885C126.658 116.893 126.181 117.015 125.748 117.241C125.316 117.467 124.944 117.789 124.659 118.185C125.488 119.17 126.317 120.131 127.079 121.2C128.074 122.649 129.865 123.403 130.503 125.167C130.68 125.582 130.924 125.965 131.224 126.302C132.211 127.511 133.181 128.729 134.225 129.889C134.596 130.257 135.055 130.523 135.56 130.658C136.272 130.857 137.035 130.891 137.765 131.024C138.851 131.221 139.937 131.454 141.023 131.644C141.117 131.656 141.213 131.646 141.305 131.62C141.396 131.593 141.48 131.548 141.553 131.487C142.001 130.974 142.292 131.321 142.689 131.587C143.303 131.992 143.983 132.307 144.67 132.68L145.167 131.321C145.475 131.777 145.598 132.15 145.872 132.332C146.419 132.622 147.157 133.078 147.597 132.903C148.21 132.655 147.861 131.967 147.514 131.495C147.456 131.412 147.514 131.255 147.514 131.024C147.697 131.137 147.872 131.264 148.036 131.404C148.542 131.967 149.006 132.573 149.536 133.102C150.631 134.179 151.111 134.063 151.509 132.704C151.509 132.655 151.608 132.622 151.791 132.489C152.131 133.905 153.45 133.98 154.626 134.295L154.03 133.466C154.958 132.704 153.408 132.199 153.632 131.437L155.224 132.829C155.253 133.29 155.428 133.73 155.721 134.088C156.173 134.553 156.692 134.946 157.262 135.256C157.409 135.333 157.57 135.373 157.735 135.373C157.899 135.373 158.062 135.333 158.208 135.256C158.381 135.04 158.266 134.593 158.274 134.253L157.354 134.319H157.08C157.288 133.897 157.453 133.492 157.652 133.136C157.735 132.969 157.892 132.696 157.992 132.704C158.929 132.779 159.301 132.141 159.7 131.479C159.765 131.414 159.846 131.367 159.934 131.342C160.023 131.318 160.116 131.317 160.205 131.338C160.33 131.429 160.363 131.686 160.38 131.868C160.396 132.063 160.396 132.26 160.38 132.456C161.045 132.847 161.877 133.091 161.747 134.162C161.747 134.353 161.864 134.717 162.005 134.758C162.767 134.975 162.891 135.587 163.115 136.216C163.148 136.347 163.21 136.469 163.297 136.571C163.384 136.674 163.494 136.755 163.617 136.807C163.741 136.86 163.875 136.884 164.01 136.876C164.144 136.868 164.275 136.83 164.391 136.763C164.616 136.647 164.74 136.001 164.649 135.678C164.558 135.355 164.119 135.032 163.72 134.585L163.811 133.698H164.516C164.566 133.698 164.607 133.782 164.657 133.823C164.748 135.322 164.748 135.322 166.141 135.546C165.883 136.2 165.444 136.896 166.646 137.078C166.738 137.078 166.795 137.327 166.887 137.434C167.127 137.707 167.359 138.155 167.633 138.188C167.906 138.22 168.404 137.948 168.777 137.807L166.904 134.758C166.917 134.365 166.847 133.972 166.696 133.607C166.481 133.301 165.975 133.193 165.403 132.903C166.904 131.603 168.371 130.328 169.847 129.068C169.952 128.991 170.074 128.94 170.203 128.919C170.252 128.919 170.319 128.919 170.427 128.969V129.722C168.877 130.112 168.835 130.161 168.909 131.462L168.865 131.451L168.851 131.437V131.448L168.865 131.451ZM160.369 132.454C160.01 132.402 159.645 132.488 159.348 132.696C159.049 132.906 158.842 133.224 158.771 133.583C158.614 134.486 159.31 134.808 159.998 135.057C160.184 135.461 160.494 135.795 160.885 136.009C161.093 136.092 161.465 135.778 161.764 135.645L160.761 133.989C160.665 133.604 160.513 133.025 160.369 132.454ZM168.851 131.448C168.775 131.431 168.698 131.422 168.619 131.42C167.848 131.537 166.904 131.578 166.887 132.572C166.887 133.003 167.542 133.4 167.866 133.881C167.989 134.046 167.973 134.311 168.097 134.46C168.39 134.813 168.722 135.133 169.084 135.413C169.175 135.48 169.606 135.289 169.631 135.164C169.714 134.717 169.904 134.063 169.68 133.831C169.118 133.167 168.823 132.318 168.851 131.448ZM160.367 132.448L160.354 132.398L160.338 132.432L160.367 132.448L160.369 132.454L160.38 132.456L160.367 132.448ZM248.84 115.368C247.712 115.244 247.057 115.617 247.082 116.42C247.122 116.583 247.204 116.732 247.321 116.853C247.438 116.974 247.584 117.062 247.745 117.108C248.492 117.207 248.897 116.519 248.84 115.368ZM244.876 115.129C244.809 115.286 244.778 115.455 244.784 115.627C244.791 115.797 244.836 115.964 244.915 116.117C244.994 116.268 245.107 116.4 245.244 116.502C245.381 116.606 245.538 116.677 245.706 116.71C245.806 116.71 246.203 116.197 246.229 115.882C246.36 114.821 245.573 115.12 244.918 115.095L244.876 115.129ZM244.31 114.76C244.847 114.398 245.276 114.126 245.681 113.836C246.269 113.413 246.145 113.008 245.681 112.568C244.902 111.848 244.429 112.685 243.89 112.942C243.755 113.057 243.65 113.204 243.586 113.371C243.522 113.537 243.501 113.718 243.525 113.894C243.575 114.191 243.971 114.414 244.31 114.76L244.305 114.763H244.313L244.31 114.76ZM248.093 112.544C247.53 113.016 246.974 113.431 246.493 113.919C246.394 114.01 246.493 114.465 246.651 114.598C246.757 114.666 246.877 114.709 247.001 114.723C247.127 114.737 247.253 114.723 247.372 114.681C247.834 114.378 248.265 114.028 248.657 113.638C248.729 113.557 248.781 113.462 248.808 113.359C248.835 113.254 248.837 113.146 248.814 113.041C248.715 112.884 248.433 112.759 248.093 112.536V112.544Z" fill="black"/>
</svg>
